<?xml version="1.0" encoding="UTF-8"?>
<!DOCTYPE svg PUBLIC "-//W3C//DTD SVG 1.1//EN" "http://www.w3.org/Graphics/SVG/1.1/DTD/svg11.dtd">
<svg version="1.2" width="26.72mm" height="26.72mm" viewBox="0 0 2672 2672" preserveAspectRatio="xMidYMid" fill-rule="evenodd" stroke-width="28.222" stroke-linejoin="round" xmlns="http://www.w3.org/2000/svg" xmlns:ooo="http://xml.openoffice.org/svg/export" xmlns:xlink="http://www.w3.org/1999/xlink" xmlns:presentation="http://sun.com/xmlns/staroffice/presentation" xmlns:smil="http://www.w3.org/2001/SMIL20/" xmlns:anim="urn:oasis:names:tc:opendocument:xmlns:animation:1.0" xml:space="preserve">
 <defs class="ClipPathGroup">
  <clipPath id="presentation_clip_path" clipPathUnits="userSpaceOnUse">
   <rect x="0" y="0" width="2672" height="2672"/>
  </clipPath>
  <clipPath id="presentation_clip_path_shrink" clipPathUnits="userSpaceOnUse">
   <rect x="2" y="2" width="2667" height="2667"/>
  </clipPath>
 </defs>
 <defs class="TextShapeIndex">
  <g ooo:slide="id1" ooo:id-list="id3"/>
 </defs>
 <defs class="EmbeddedBulletChars">
  <g id="bullet-char-template-57356" transform="scale(0.00048828125,-0.00048828125)">
   <path d="M 580,1141 L 1163,571 580,0 -4,571 580,1141 Z"/>
  </g>
  <g id="bullet-char-template-57354" transform="scale(0.00048828125,-0.00048828125)">
   <path d="M 8,1128 L 1137,1128 1137,0 8,0 8,1128 Z"/>
  </g>
  <g id="bullet-char-template-10146" transform="scale(0.00048828125,-0.00048828125)">
   <path d="M 174,0 L 602,739 174,1481 1456,739 174,0 Z M 1358,739 L 309,1346 659,739 1358,739 Z"/>
  </g>
  <g id="bullet-char-template-10132" transform="scale(0.00048828125,-0.00048828125)">
   <path d="M 2015,739 L 1276,0 717,0 1260,543 174,543 174,936 1260,936 717,1481 1274,1481 2015,739 Z"/>
  </g>
  <g id="bullet-char-template-10007" transform="scale(0.00048828125,-0.00048828125)">
   <path d="M 0,-2 C -7,14 -16,27 -25,37 L 356,567 C 262,823 215,952 215,954 215,979 228,992 255,992 264,992 276,990 289,987 310,991 331,999 354,1012 L 381,999 492,748 772,1049 836,1024 860,1049 C 881,1039 901,1025 922,1006 886,937 835,863 770,784 769,783 710,716 594,584 L 774,223 C 774,196 753,168 711,139 L 727,119 C 717,90 699,76 672,76 641,76 570,178 457,381 L 164,-76 C 142,-110 111,-127 72,-127 30,-127 9,-110 8,-76 1,-67 -2,-52 -2,-32 -2,-23 -1,-13 0,-2 Z"/>
  </g>
  <g id="bullet-char-template-10004" transform="scale(0.00048828125,-0.00048828125)">
   <path d="M 285,-33 C 182,-33 111,30 74,156 52,228 41,333 41,471 41,549 55,616 82,672 116,743 169,778 240,778 293,778 328,747 346,684 L 369,508 C 377,444 397,411 428,410 L 1163,1116 C 1174,1127 1196,1133 1229,1133 1271,1133 1292,1118 1292,1087 L 1292,965 C 1292,929 1282,901 1262,881 L 442,47 C 390,-6 338,-33 285,-33 Z"/>
  </g>
  <g id="bullet-char-template-9679" transform="scale(0.00048828125,-0.00048828125)">
   <path d="M 813,0 C 632,0 489,54 383,161 276,268 223,411 223,592 223,773 276,916 383,1023 489,1130 632,1184 813,1184 992,1184 1136,1130 1245,1023 1353,916 1407,772 1407,592 1407,412 1353,268 1245,161 1136,54 992,0 813,0 Z"/>
  </g>
  <g id="bullet-char-template-8226" transform="scale(0.00048828125,-0.00048828125)">
   <path d="M 346,457 C 273,457 209,483 155,535 101,586 74,649 74,723 74,796 101,859 155,911 209,963 273,989 346,989 419,989 480,963 531,910 582,859 608,796 608,723 608,648 583,586 532,535 482,483 420,457 346,457 Z"/>
  </g>
  <g id="bullet-char-template-8211" transform="scale(0.00048828125,-0.00048828125)">
   <path d="M -4,459 L 1135,459 1135,606 -4,606 -4,459 Z"/>
  </g>
  <g id="bullet-char-template-61548" transform="scale(0.00048828125,-0.00048828125)">
   <path d="M 173,740 C 173,903 231,1043 346,1159 462,1274 601,1332 765,1332 928,1332 1067,1274 1183,1159 1299,1043 1357,903 1357,740 1357,577 1299,437 1183,322 1067,206 928,148 765,148 601,148 462,206 346,322 231,437 173,577 173,740 Z"/>
  </g>
 </defs>
 <defs class="TextEmbeddedBitmaps"/>
 <g>
  <g id="id2" class="Master_Slide">
   <g id="bg-id2" class="Background"/>
   <g id="bo-id2" class="BackgroundObjects"/>
  </g>
 </g>
 <g class="SlideGroup">
  <g>
   <g id="container-id1">
    <g id="id1" class="Slide" clip-path="url(#presentation_clip_path)">
     <g class="Page">
      <g class="Graphic">
       <g id="id3">
        <rect class="BoundingBox" stroke="none" fill="none" x="0" y="0" width="2672" height="2672"/>
        <path fill="rgb(0,0,0)" stroke="none" d="M 2658,1336 C 2658,1579 2602,1786 2481,1997 2359,2207 2207,2359 1997,2481 1786,2602 1579,2658 1336,2658 1092,2658 885,2602 674,2481 464,2359 312,2207 190,1997 69,1786 13,1579 13,1336 13,1092 69,885 190,674 312,464 464,312 674,190 885,69 1092,13 1335,13 1579,13 1786,69 1997,190 2207,312 2359,464 2481,674 2602,885 2658,1092 2658,1335 L 2658,1336 Z"/>
        <path fill="rgb(255,255,255)" stroke="none" d="M 2578,1336 C 2578,1564 2526,1759 2412,1957 2298,2155 2155,2298 1957,2412 1759,2526 1564,2578 1336,2578 1107,2578 912,2526 714,2412 516,2298 373,2155 259,1957 145,1759 93,1564 93,1336 93,1107 145,912 259,714 373,516 516,373 714,259 912,145 1107,93 1335,93 1564,93 1759,145 1957,259 2155,373 2298,516 2412,714 2526,912 2578,1107 2578,1335 L 2578,1336 Z"/>
        <path fill="rgb(173,216,230)" stroke="none" d="M 992,1547 L 1177,1547 992,1283 992,1547 Z"/>
        <path fill="none" stroke="rgb(173,216,230)" stroke-width="26" stroke-linejoin="miter" d="M 992,1547 L 1177,1547 992,1283 992,1547 Z"/>
        <path fill="rgb(173,216,230)" stroke="none" d="M 1362,1653 L 1547,1653 1547,1891 1362,1653 Z"/>
        <path fill="none" stroke="rgb(173,216,230)" stroke-width="26" stroke-linejoin="miter" d="M 1362,1653 L 1547,1653 1547,1891 1362,1653 Z"/>
        <path fill="rgb(250,57,57)" stroke="none" d="M 1309,1547 L 1547,1547 1547,1097 965,1097 1309,1547 Z"/>
        <path fill="none" stroke="rgb(250,57,57)" stroke-width="26" stroke-linejoin="miter" d="M 1309,1547 L 1547,1547 1547,1097 965,1097 1309,1547 Z"/>
        <path fill="none" stroke="rgb(0,0,0)" stroke-width="79" stroke-linejoin="miter" stroke-linecap="round" d="M 939,2261 L 939,542"/>
        <path fill="none" stroke="rgb(0,0,0)" stroke-width="79" stroke-linejoin="miter" stroke-linecap="round" d="M 1600,2261 L 1600,542"/>
        <path fill="none" stroke="rgb(0,0,0)" stroke-width="79" stroke-linejoin="miter" stroke-linecap="round" d="M 2129,1071 L 410,1071"/>
        <path fill="none" stroke="rgb(0,0,0)" stroke-width="79" stroke-linejoin="miter" stroke-linecap="round" d="M 2129,1600 L 410,1600"/>
        <path fill="none" stroke="rgb(0,0,0)" stroke-width="79" stroke-linejoin="miter" stroke-linecap="round" d="M 1864,2393 L 542,595"/>
       </g>
      </g>
     </g>
    </g>
   </g>
  </g>
 </g>
</svg>