<?xml version="1.0" standalone="no"?>
<!DOCTYPE svg PUBLIC "-//W3C//DTD SVG 20010904//EN"
 "http://www.w3.org/TR/2001/REC-SVG-20010904/DTD/svg10.dtd">
<svg version="1.0" xmlns="http://www.w3.org/2000/svg"
 width="700.000000pt" height="700.000000pt" viewBox="0 0 700.000000 700.000000"
 preserveAspectRatio="xMidYMid meet">
<metadata>
Created by potrace 1.14, written by Peter Selinger 2001-2017
</metadata>
<g transform="translate(0.000000,700.000000) scale(0.100000,-0.100000)"
fill="#000000" stroke="none">
<path d="M3280 6994 c-19 -2 -84 -9 -145 -14 -639 -62 -1264 -315 -1795 -726
-149 -115 -481 -446 -595 -594 -410 -532 -653 -1132 -727 -1795 -17 -155 -17
-575 0 -730 75 -673 332 -1300 748 -1820 114 -143 339 -372 484 -494 537 -451
1163 -717 1885 -803 142 -17 586 -17 730 0 682 79 1268 318 1802 734 138 107
389 351 512 498 451 538 717 1162 803 1885 16 139 16 595 0 730 -77 629 -275
1158 -620 1649 -234 333 -577 668 -917 896 -460 308 -968 495 -1535 566 -117
15 -552 27 -630 18z m585 -224 c425 -50 836 -178 1193 -372 602 -326 1091
-833 1391 -1443 193 -392 297 -774 332 -1215 12 -164 8 -446 -11 -605 -124
-1078 -759 -2016 -1712 -2533 -360 -195 -769 -322 -1203 -374 -138 -16 -575
-16 -710 0 -769 93 -1444 418 -1975 952 -487 489 -803 1103 -914 1780 -211
1288 340 2556 1424 3278 460 307 985 491 1540 541 127 12 521 6 645 -9z"/>
<path d="M2392 5684 c-47 -33 -47 -23 -52 -689 l-5 -629 -428 582 c-235 320
-438 588 -450 597 -63 44 -157 -5 -157 -83 0 -48 -37 6 424 -619 207 -282 379
-520 382 -528 5 -13 -59 -15 -546 -15 l-552 0 -29 -29 c-56 -57 -30 -149 49
-171 23 -6 259 -10 644 -10 l607 0 31 -44 30 -45 0 -550 0 -551 -666 0 -666 0
-29 -29 c-56 -57 -30 -149 49 -171 24 -6 268 -10 675 -10 l637 0 0 -812 c0
-527 4 -826 10 -850 29 -104 171 -104 200 0 6 24 10 323 10 850 l0 812 373 0
373 0 392 -533 392 -532 0 -280 c0 -161 4 -296 10 -317 26 -91 146 -107 192
-25 8 13 15 80 18 169 l5 146 250 -340 c138 -187 261 -349 274 -359 63 -50
161 -2 161 79 0 47 29 4 -368 544 l-322 437 0 506 0 505 638 0 c406 0 650 4
674 10 79 22 105 114 49 171 l-29 29 -666 0 -666 0 0 595 0 595 638 0 c406 0
650 4 674 10 79 22 105 114 49 171 l-29 29 -666 0 -666 0 0 643 c0 409 -4 655
-10 679 -14 48 -52 78 -100 78 -48 0 -86 -30 -100 -78 -6 -24 -10 -270 -10
-679 l0 -643 -765 0 -765 0 0 643 c0 409 -4 655 -10 679 -6 20 -22 46 -37 58
-31 24 -89 26 -121 4z m455 -2370 c154 -210 284 -387 287 -393 5 -8 -74 -11
-283 -11 l-291 0 0 397 c0 218 2 394 4 392 2 -2 129 -176 283 -385z m1243
-976 c0 -296 -2 -350 -13 -338 -8 8 -114 152 -237 320 -123 168 -235 320 -248
338 l-24 32 261 0 261 0 0 -352z"/>
</g>
</svg>
